<svg width="111" height="35" viewBox="0 0 111 35" fill="none" xmlns="http://www.w3.org/2000/svg">
<path d="M42.6089 10.066C42.0383 10.066 41.5176 10.142 41.0468 10.2939C40.5903 10.4337 40.1901 10.6691 39.8463 11.0001C39.5161 11.3175 39.2493 11.7305 39.046 12.2391C38.8556 12.747 38.7475 13.3533 38.7218 14.058C38.6819 15.2014 38.6819 16.3448 38.7218 17.4882C38.7475 18.1994 38.8556 18.8057 39.046 19.3071C39.2493 19.815 39.5161 20.2344 39.8463 20.5654C40.1887 20.8828 40.5889 21.1182 41.0468 21.2716C41.5176 21.4114 42.0383 21.4813 42.6089 21.4813C43.1696 21.4813 43.6903 21.4053 44.171 21.2534C44.6518 21.0879 45.0648 20.8475 45.41 20.5322C45.7667 20.202 46.047 19.7825 46.251 19.274C46.4543 18.7661 46.5559 18.1691 46.5559 17.4829V16.5114H43.2359C42.9563 16.5114 42.8165 16.3687 42.8165 16.0834V15.8159C42.8165 15.5306 42.9563 15.3879 43.2359 15.3879H47.3124C47.5977 15.3879 47.7404 15.5306 47.7404 15.8159V17.4925C47.7404 18.2557 47.6262 18.9548 47.398 19.5896C47.1697 20.2123 46.8331 20.753 46.388 21.2116C45.9564 21.6681 45.4157 22.0237 44.7659 22.2784C44.124 22.5195 43.4 22.64 42.5939 22.64C41.7679 22.64 41.044 22.5195 40.422 22.2784C39.7993 22.0244 39.2721 21.6749 38.8406 21.2298C38.4212 20.7854 38.0973 20.2583 37.8691 19.6484C37.6529 19.0257 37.5324 18.3396 37.5074 17.5899C37.4818 17.0192 37.4689 16.4158 37.4689 15.7795C37.4689 15.1376 37.4818 14.5341 37.5074 13.9692C37.5331 13.2202 37.6601 12.5405 37.8883 11.9299C38.1166 11.3072 38.4404 10.7736 38.8598 10.3292C39.2914 9.88486 39.8185 9.54176 40.4412 9.29995C41.0639 9.04602 41.7815 8.91905 42.5939 8.91905C43.4713 8.91905 44.221 9.05244 44.843 9.31921C45.4657 9.58599 45.9739 9.90697 46.3676 10.2822C46.7614 10.6509 47.0538 11.0386 47.245 11.4452C47.4354 11.8518 47.5371 12.1884 47.5499 12.4552C47.5628 12.5693 47.5307 12.6646 47.4536 12.7409C47.3773 12.8051 47.2757 12.8372 47.1487 12.8372H46.7293C46.6151 12.8372 46.5324 12.8122 46.481 12.7623C46.4311 12.6981 46.3805 12.5965 46.3291 12.4574C46.2278 12.172 46.0852 11.8867 45.9011 11.6014C45.7228 11.3161 45.4824 11.0622 45.18 10.8396C44.8754 10.6113 44.5134 10.427 44.094 10.2864C43.6746 10.1466 43.1788 10.0767 42.6068 10.0767L42.6089 10.066ZM51.605 13.8568C52.0615 12.9795 52.9253 12.5408 54.1964 12.5408H54.9026C55.1822 12.5408 55.322 12.6806 55.322 12.9602V13.2277C55.322 13.5073 55.1822 13.6471 54.9026 13.6471H54.083C53.3198 13.6471 52.7163 13.8693 52.2727 14.3137C51.8283 14.7581 51.6061 15.3615 51.6061 16.1241V22.0301C51.6061 22.1571 51.5615 22.2588 51.4723 22.3351C51.396 22.4114 51.2944 22.4496 51.1674 22.4496H50.8625C50.5829 22.4496 50.443 22.3098 50.443 22.0301V12.9784C50.443 12.8515 50.4812 12.7498 50.5575 12.6735C50.6339 12.5843 50.7355 12.5397 50.8625 12.5397H51.1674C51.2944 12.5397 51.396 12.5843 51.4723 12.6735C51.5615 12.7498 51.6061 12.8515 51.6061 12.9784V13.8558L51.605 13.8568ZM63.3744 22.4549C63.0948 22.4549 62.955 22.3151 62.955 22.0355V21.14C62.8408 21.3183 62.6886 21.4966 62.4981 21.6749C62.3198 21.8532 62.0976 22.012 61.8315 22.151C61.5648 22.2909 61.2438 22.405 60.8686 22.4934C60.4998 22.5947 60.0683 22.6454 59.5739 22.6454C59.1174 22.6454 58.6788 22.5755 58.2579 22.4357C57.8513 22.2837 57.4893 22.0804 57.1719 21.8258C56.8673 21.5719 56.6198 21.2733 56.4294 20.9302C56.2511 20.5879 56.1619 20.2134 56.1619 19.8068C56.1619 19.3753 56.2511 18.9876 56.4294 18.6438C56.6198 18.3014 56.8802 18.0029 57.2104 17.7482C57.5407 17.4815 57.9344 17.2657 58.3917 17.1009C58.8624 16.9226 59.3771 16.7956 59.9356 16.72L62.9464 16.3006V15.634C62.9464 14.9478 62.7367 14.4143 62.3173 14.0334C61.9107 13.6525 61.2566 13.462 60.355 13.462C59.6439 13.462 59.091 13.6018 58.6966 13.8815C58.3157 14.1482 58.0753 14.4407 57.9755 14.7588C57.9255 14.9107 57.862 15.0188 57.785 15.083C57.7208 15.1329 57.6316 15.1579 57.5175 15.1579H57.25C57.1359 15.1579 57.0343 15.1197 56.9451 15.0434C56.8688 14.9543 56.8306 14.8526 56.8306 14.7385C56.8306 14.5602 56.8941 14.338 57.0211 14.0719C57.148 13.8051 57.3513 13.5448 57.6309 13.2908C57.9163 13.0369 58.2847 12.8211 58.7362 12.6435C59.1806 12.4531 59.7212 12.3579 60.3582 12.3579C61.1072 12.3579 61.7235 12.4595 62.2071 12.6628C62.7021 12.8661 63.0898 13.1328 63.3701 13.4631C63.6497 13.7805 63.8402 14.1361 63.9415 14.5298C64.0556 14.9236 64.1127 15.3113 64.1127 15.6929V22.0376C64.1127 22.3172 63.9728 22.4571 63.6932 22.4571H63.369L63.3744 22.4549ZM59.773 21.5401C60.2045 21.5401 60.6111 21.4702 60.9927 21.3304C61.3864 21.1785 61.7295 20.9563 62.022 20.6638C62.3073 20.3785 62.5356 20.0101 62.7067 19.5586C62.8722 19.1142 62.955 18.5935 62.955 17.9965V17.3491L60.4973 17.6915C58.3888 17.9768 57.3346 18.6502 57.3346 19.7116C57.3346 20.029 57.4045 20.3022 57.5443 20.5312C57.6962 20.7594 57.8866 20.9499 58.1156 21.1025C58.3439 21.2544 58.6042 21.3686 58.8967 21.4449C59.182 21.5091 59.4744 21.5412 59.774 21.5412L59.773 21.5401ZM71.4953 22.6454C70.6949 22.6454 70.0409 22.5027 69.533 22.2174C69.0251 21.9321 68.6121 21.5765 68.294 21.1507V25.6658C68.294 25.9454 68.1542 26.0852 67.8746 26.0852H67.5504C67.2708 26.0852 67.131 25.9454 67.131 25.6658V12.9602C67.131 12.6806 67.2708 12.5408 67.5504 12.5408H67.8746C68.1542 12.5408 68.294 12.6806 68.294 12.9602V13.8558C68.6114 13.4242 69.0244 13.0687 69.533 12.789C70.0409 12.5037 70.6949 12.3611 71.4953 12.3611C72.2321 12.3611 72.8545 12.4944 73.3623 12.7612C73.883 13.0152 74.3024 13.3582 74.6206 13.7905C74.938 14.2099 75.1662 14.6928 75.3053 15.2392C75.4573 15.7728 75.5464 16.3191 75.5728 16.8784C75.5857 17.0688 75.5921 17.2785 75.5921 17.5075C75.5921 17.7357 75.5857 17.9455 75.5728 18.1366C75.5471 18.6973 75.458 19.2501 75.3053 19.795C75.1655 20.3286 74.9373 20.8115 74.6206 21.2437C74.3032 21.6632 73.8837 22.0062 73.3623 22.273C72.8545 22.527 72.2321 22.6539 71.4953 22.6539V22.6454ZM68.294 16.8142C68.2812 17.0046 68.2747 17.2521 68.2747 17.5567C68.2747 17.8613 68.2812 18.1088 68.294 18.2993C68.3068 18.6802 68.3703 19.0678 68.4844 19.4623C68.6114 19.8432 68.8019 20.1863 69.0558 20.4916C69.3097 20.7961 69.6307 21.0501 70.0187 21.2534C70.3996 21.4438 70.8569 21.539 71.3904 21.539C71.9511 21.539 72.4147 21.4438 72.7813 21.2534C73.1622 21.0629 73.4672 20.809 73.6961 20.4916C73.9372 20.1613 74.1084 19.7868 74.2097 19.3681C74.3238 18.9366 74.3937 18.4918 74.4194 18.0339C74.4323 17.6773 74.4323 17.3217 74.4194 16.9672C74.3937 16.5107 74.3238 16.072 74.2097 15.6511C74.1084 15.2317 73.9372 14.8633 73.6961 14.5459C73.4679 14.2156 73.163 13.9553 72.7813 13.7648C72.4126 13.5615 71.9489 13.4599 71.3904 13.4599C70.844 13.4599 70.3804 13.5615 69.9995 13.7648C69.6186 13.9681 69.2976 14.2349 69.0365 14.5651C68.7954 14.8826 68.6111 15.2381 68.4834 15.6319C68.3692 16.0256 68.3058 16.4194 68.2929 16.8131L68.294 16.8142ZM79.3497 13.8568C79.6921 13.4125 80.1051 13.0505 80.5887 12.7709C81.0695 12.4912 81.7236 12.3514 82.551 12.3514C83.1987 12.3514 83.764 12.4595 84.2469 12.6756C84.7276 12.8918 85.1278 13.1903 85.4473 13.5712C85.7776 13.9521 86.0251 14.4032 86.1899 14.9246C86.3554 15.4454 86.4381 16.0106 86.4381 16.6205V22.0323C86.4381 22.3119 86.2983 22.4517 86.0187 22.4517H85.6977C85.4181 22.4517 85.2783 22.3119 85.2783 22.0323V16.7147C85.2783 15.6982 85.0308 14.9043 84.5357 14.333C84.0407 13.7481 83.3167 13.4556 82.3638 13.4556C81.4493 13.4556 80.7189 13.7409 80.1725 14.3116C79.6261 14.8822 79.3529 15.6836 79.3529 16.7157V22.0334C79.3529 22.313 79.2131 22.4528 78.9335 22.4528H78.6093C78.3297 22.4528 78.1899 22.313 78.1899 22.0334V9.33847C78.1899 9.05886 78.3297 8.91905 78.6093 8.91905H78.9335C79.2131 8.91905 79.3529 9.05886 79.3529 9.33847V13.8536L79.3497 13.8568ZM94.2112 8.92226C94.9481 8.92226 95.6214 9.03033 96.2313 9.24646C96.8412 9.46259 97.3619 9.79284 97.7934 10.2372C98.2378 10.6688 98.5809 11.2152 98.8227 11.8764C99.0766 12.5241 99.2164 13.2926 99.2421 14.1821C99.2678 14.7527 99.2806 15.2863 99.2806 15.7827C99.2806 16.2778 99.2678 16.8113 99.2421 17.3834C99.1779 19.2001 98.7143 20.534 97.8512 21.385L99.0709 23.1001C99.0838 23.1258 99.0966 23.1507 99.1095 23.175C99.1223 23.2007 99.1287 23.2452 99.1287 23.3087C99.1287 23.41 99.0905 23.4992 99.0142 23.5762C98.9379 23.6525 98.8487 23.6907 98.7467 23.6907H98.3273C98.1875 23.6907 98.067 23.6336 97.9657 23.5195C97.8644 23.4182 97.7816 23.3291 97.7174 23.252L96.8765 22.089C96.1132 22.4578 95.2238 22.6422 94.208 22.6422C92.6202 22.6422 91.3944 22.2167 90.5306 21.3657C89.6797 20.5147 89.2285 19.1873 89.1772 17.3834C89.1515 16.8127 89.1386 16.2792 89.1386 15.7827C89.1386 15.2877 89.1515 14.7542 89.1772 14.1821C89.2028 13.2926 89.3362 12.5241 89.5773 11.8764C89.8312 11.2159 90.1743 10.6695 90.6066 10.2372C91.051 9.79284 91.5717 9.46259 92.1687 9.24646C92.7786 9.03033 93.4584 8.92226 94.208 8.92226H94.2112ZM94.2112 10.0671C93.6777 10.0671 93.182 10.1498 92.724 10.3153C92.2675 10.4673 91.8673 10.7148 91.5235 11.0579C91.1812 11.4003 90.908 11.8389 90.704 12.3739C90.5135 12.9074 90.4055 13.5423 90.3798 14.2784C90.3669 14.5637 90.3541 14.8305 90.3413 15.0787C90.3413 15.3198 90.3413 15.5552 90.3413 15.7849C90.3413 16.0131 90.3413 16.2535 90.3413 16.506C90.3541 16.7471 90.3669 17.0075 90.3798 17.2871C90.4055 18.036 90.5135 18.678 90.704 19.213C90.9073 19.7337 91.174 20.1652 91.5043 20.5076C91.8467 20.85 92.2468 21.1039 92.7048 21.2694C93.1613 21.4213 93.662 21.4973 94.207 21.4973C94.7533 21.4973 95.2541 21.4213 95.7092 21.2694C96.1657 21.1039 96.5594 20.85 96.8904 20.5076C97.2328 20.1652 97.4995 19.7337 97.6907 19.213C97.894 18.6794 98.0081 18.0375 98.0331 17.2871C98.0459 17.0075 98.0523 16.7471 98.0523 16.506C98.0523 16.2521 98.0523 16.0117 98.0523 15.7849C98.0523 15.5566 98.0523 15.3212 98.0523 15.0787C98.0523 14.8376 98.0459 14.5709 98.0331 14.2784C98.0074 13.5416 97.8933 12.9067 97.6907 12.3739C97.5002 11.8404 97.2335 11.4017 96.8904 11.0579C96.548 10.7155 96.1478 10.468 95.6899 10.3153C95.2334 10.1498 94.7376 10.0671 94.2027 10.0671H94.2112ZM103.512 21.3079H110.086C110.371 21.3079 110.514 21.4506 110.514 21.7359V22.0216C110.514 22.3012 110.371 22.441 110.086 22.441H102.731C102.452 22.441 102.312 22.3012 102.312 22.0216V9.53106C102.312 9.25145 102.452 9.11164 102.731 9.11164H103.093C103.372 9.11164 103.512 9.25145 103.512 9.53106V21.3079ZM2.83163 26.6716L1.54769 25.929L15.8614 1.13842L17.1453 1.88096L2.83163 26.6716Z" fill="#E10098"/>
<path d="M1.25561 23.9496H29.883V25.4336H1.25561V23.9496Z" fill="#E10098"/>
<path d="M16.1417 33.0506L1.8216 24.7831L2.56414 23.4992L16.8832 31.7645L16.1417 33.0506ZM28.5809 11.5019L14.2618 3.23551L15.0044 1.95158L29.3234 10.219L28.5809 11.5019Z" fill="#E10098"/>
<path d="M2.56736 11.4976L1.82482 10.2137L16.1556 1.95586L16.8982 3.23979L2.56736 11.4976Z" fill="#E10098"/>
<path d="M28.3166 26.6716L14.0018 1.88096L15.2858 1.13842L29.5995 25.929L28.3166 26.6716ZM2.39081 9.22934H3.87268V25.7642H2.39081V9.22934ZM27.2734 9.22934H28.7574V25.7642H27.2724L27.2734 9.22934Z" fill="#E10098"/>
<path d="M15.8882 32.4225L15.2398 31.2991L27.6939 24.109L28.3423 25.2325L15.8882 32.4225Z" fill="#E10098"/>
<path d="M30.724 26.2468C30.3097 26.9633 29.6281 27.4862 28.8287 27.7006C28.0293 27.9151 27.1775 27.8036 26.4603 27.3906C25.7437 26.9763 25.2209 26.2947 25.0064 25.4953C24.792 24.6959 24.9035 23.8441 25.3165 23.1268C25.7307 22.4103 26.4124 21.8874 27.2118 21.673C28.0112 21.4586 28.863 21.5701 29.5802 21.9831C31.0824 22.839 31.5917 24.7649 30.7251 26.2468H30.724ZM5.82426 11.8667C5.41001 12.5833 4.72838 13.1061 3.92899 13.3206C3.1296 13.535 2.27778 13.4235 1.56054 13.0105C0.84401 12.5963 0.321136 11.9146 0.106695 11.1152C-0.107746 10.3159 0.00377081 9.46404 0.416765 8.74679C0.831013 8.03026 1.51265 7.50739 2.31204 7.29295C3.11143 7.07851 3.96324 7.19003 4.68049 7.60302C6.17306 8.45898 6.68129 10.3849 5.82533 11.8667H5.82426ZM0.426395 26.2468C-0.4317 24.7542 0.0775928 22.8508 1.57123 21.9831C3.06381 21.125 4.96724 21.6343 5.83496 23.1279C6.69306 24.6205 6.18376 26.5239 4.69012 27.3916C3.18792 28.2497 1.28449 27.7404 0.426395 26.2468ZM25.3272 11.8667C24.4691 10.3742 24.9784 8.47074 26.472 7.60302C27.9646 6.74493 29.868 7.25422 30.7358 8.74786C31.5939 10.2404 31.0846 12.1439 29.5909 13.0116C28.8737 13.4246 28.0219 13.5361 27.2225 13.3217C26.4231 13.1072 25.7414 12.5843 25.3272 11.8678V11.8667ZM15.5725 35C13.8478 35 12.4536 33.6059 12.4536 31.8811C12.4536 30.1564 13.851 28.7622 15.5725 28.7622C17.2941 28.7622 18.6914 30.1564 18.6914 31.8811C18.69 32.7079 18.3609 33.5003 17.7763 34.0849C17.1917 34.6695 16.3993 34.9986 15.5725 35ZM15.5725 6.23777C13.8478 6.23777 12.4536 4.84364 12.4536 3.11889C12.4536 1.39414 13.851 0 15.5725 0C17.2941 0 18.6914 1.39414 18.6914 3.11889C18.6921 3.52866 18.6119 3.93455 18.4554 4.31326C18.2989 4.69198 18.0692 5.03609 17.7795 5.32584C17.4897 5.6156 17.1456 5.84531 16.7669 6.0018C16.3882 6.15829 15.9823 6.23848 15.5725 6.23777Z" fill="#E10098"/>
</svg>
