<svg width="213" height="59" viewBox="0 0 213 59" fill="none" xmlns="http://www.w3.org/2000/svg">
<path d="M1.92236 51.3125C1.79736 42.3959 1.65153 34.9792 1.48486 29.0625C1.3182 23.1042 1.17236 18.2917 1.04736 14.625C0.922363 10.9167 0.818197 8.18752 0.734863 6.43752C0.65153 4.64586 0.609863 3.47919 0.609863 2.93752C0.609863 2.31252 0.77653 1.81252 1.10986 1.43752C1.48486 1.06252 1.8807 0.895858 2.29736 0.937524C2.71403 0.937524 3.10986 1.16669 3.48486 1.62502C3.85986 2.04169 4.0682 2.72919 4.10986 3.68752L6.10986 49.5L33.2349 43.75C36.0265 43.75 36.6307 44.9375 35.0474 47.3125L3.67236 54C2.5057 54 1.92236 53.1042 1.92236 51.3125Z" fill="#00778D"/>
<path d="M40.3274 7.50002C40.119 6.79169 39.9524 6.16669 39.8274 5.62502C39.744 5.04169 39.744 4.41669 39.8274 3.75002C39.869 3.54169 39.9107 3.31252 39.9524 3.06252C40.0357 2.81252 40.1399 2.62502 40.2649 2.50002C40.4315 2.33336 40.6399 2.22919 40.8899 2.18752C41.1399 2.10419 41.4732 2.14586 41.8899 2.31252C42.1399 2.43752 42.3899 2.66669 42.6399 3.00002C42.8899 3.29169 43.0982 3.64586 43.2649 4.06252C43.4732 4.47919 43.6399 4.87502 43.7649 5.25002C43.8899 5.62502 43.9732 5.93752 44.0149 6.18752C45.1399 5.52086 46.3899 4.85419 47.7649 4.18752C49.1399 3.47919 50.5565 2.89586 52.0149 2.43752C53.5149 1.93752 55.0149 1.58336 56.5149 1.37502C58.0149 1.12502 59.4524 1.08336 60.8274 1.25002C61.2857 1.29169 61.8065 1.41669 62.3899 1.62502C63.0149 1.79169 63.5774 2.04169 64.0774 2.37502C64.619 2.66669 65.0565 3.04169 65.3899 3.50002C65.7649 3.91669 65.9107 4.41669 65.8274 5.00002C65.8274 6.12502 65.5774 7.29169 65.0774 8.50002C64.619 9.70836 64.0149 10.9167 63.2649 12.125C62.5149 13.3334 61.6607 14.5209 60.7024 15.6875C59.7857 16.8542 58.869 17.9584 57.9524 19C57.0774 20 56.244 20.9167 55.4524 21.75C54.6607 22.5834 54.0565 23.2709 53.6399 23.8125C55.0565 23.2709 56.7232 22.8125 58.6399 22.4375C60.5565 22.0209 62.4315 21.875 64.2649 22C66.1399 22.125 67.8065 22.5834 69.2649 23.375C70.7649 24.1667 71.7649 25.4584 72.2649 27.25C72.3899 28.3334 72.1815 29.5625 71.6399 30.9375C71.0982 32.2709 70.3274 33.6667 69.3274 35.125C68.3274 36.5834 67.1399 38.0625 65.7649 39.5625C64.4315 41.0209 63.0149 42.4375 61.5149 43.8125C60.0565 45.1875 58.5774 46.4584 57.0774 47.625C55.5774 48.7917 54.1815 49.8125 52.8899 50.6875C51.6399 51.5209 50.5357 52.1667 49.5774 52.625C48.619 53.0417 47.9315 53.2084 47.5149 53.125L46.0149 50.625C46.2232 50.6667 46.8899 50.3334 48.0149 49.625C49.1399 48.875 50.4732 47.9167 52.0149 46.75C53.5982 45.5417 55.2857 44.1875 57.0774 42.6875C58.869 41.1459 60.5357 39.6042 62.0774 38.0625C63.6607 36.5209 64.994 35.0417 66.0774 33.625C67.1607 32.1667 67.7857 30.8959 67.9524 29.8125C68.1607 28.3542 67.7649 27.3125 66.7649 26.6875C65.8065 26.0209 64.494 25.6875 62.8274 25.6875C61.1607 25.6875 59.3065 25.9792 57.2649 26.5625C55.2232 27.1042 53.2857 27.8334 51.4524 28.75C49.619 29.625 48.0149 30.6459 46.6399 31.8125C45.2649 32.9792 44.4107 34.1875 44.0774 35.4375C43.9107 36.7292 43.8065 38.0625 43.7649 39.4375C43.7232 40.8125 43.6815 42.2084 43.6399 43.625C43.6399 45 43.619 46.375 43.5774 47.75C43.5774 49.125 43.494 50.4375 43.3274 51.6875C43.2024 52.6042 43.0149 53.3542 42.7649 53.9375C42.5565 54.5209 41.9524 54.7292 40.9524 54.5625C40.869 54.5625 40.7232 54.5417 40.5149 54.5C40.3065 54.4584 40.2024 54.4167 40.2024 54.375L40.3274 7.50002ZM44.1399 12.375C44.0149 13.2084 43.9107 14.2709 43.8274 15.5625C43.7857 16.8542 43.7649 18.1875 43.7649 19.5625C43.7649 20.9375 43.8065 22.2709 43.8899 23.5625C44.0149 24.8542 44.1815 25.9375 44.3899 26.8125C45.1399 26.1875 46.1607 25.3125 47.4524 24.1875C48.7857 23.0625 50.1815 21.8125 51.6399 20.4375C53.1399 19.0209 54.5982 17.5417 56.0149 16C57.4315 14.4584 58.5982 12.9792 59.5149 11.5625C60.4732 10.1042 61.0774 8.79169 61.3274 7.62502C61.5774 6.41669 61.2857 5.45836 60.4524 4.75002C59.7024 4.66669 58.7857 4.66669 57.7024 4.75002C56.6607 4.79169 55.5565 4.93752 54.3899 5.18752C53.2232 5.39586 52.0565 5.70836 50.8899 6.12502C49.7232 6.54169 48.6607 7.06252 47.7024 7.68752C46.744 8.27086 45.9315 8.95836 45.2649 9.75002C44.6399 10.5417 44.2649 11.4167 44.1399 12.375Z" fill="#00778D"/>
<path d="M109.569 9.125C109.403 9.04167 109.132 9.5625 108.757 10.6875C108.424 11.8125 107.986 13.2708 107.444 15.0625C106.903 16.8542 106.299 18.875 105.632 21.125C105.007 23.375 104.319 25.6042 103.569 27.8125C102.861 30.0208 102.132 32.0833 101.382 34C100.632 35.9167 99.8819 37.4375 99.1319 38.5625C98.4236 39.6875 97.7361 40.3125 97.0694 40.4375C96.4444 40.5208 95.8611 39.8542 95.3194 38.4375C94.6528 37.4375 93.9028 36.0625 93.0694 34.3125C92.2361 32.5625 91.3403 30.6667 90.3819 28.625C89.4653 26.5833 88.4861 24.4792 87.4444 22.3125C86.4444 20.1042 85.4236 18.0625 84.3819 16.1875C83.3403 14.3125 82.3194 12.6875 81.3194 11.3125C80.3194 9.89583 79.3611 8.91667 78.4444 8.375C78.4444 11.625 78.6319 15.1875 79.0069 19.0625C79.3819 22.9375 79.7778 26.875 80.1944 30.875C80.6528 34.8333 81.0694 38.75 81.4444 42.625C81.8194 46.5 82.0069 50.0833 82.0069 53.375C82.2153 53.7917 82.2153 54.2083 82.0069 54.625C81.8403 55.0417 81.5694 55.3542 81.1944 55.5625C80.8194 55.7708 80.3819 55.8125 79.8819 55.6875C79.3819 55.5625 78.9236 55.1875 78.5069 54.5625C77.9236 50.3958 77.5069 46.1458 77.2569 41.8125C77.0069 37.4792 76.7569 33.125 76.5069 28.75C76.2569 24.375 75.9444 20.0208 75.5694 15.6875C75.2361 11.3542 74.7153 7.08333 74.0069 2.875C73.9653 2.04167 74.1111 1.52083 74.4444 1.3125C74.7778 1.10417 75.1944 1 75.6944 1C77.5694 1.54167 79.2569 2.54167 80.7569 4C82.2569 5.41667 83.6111 7.10417 84.8194 9.0625C86.0694 10.9792 87.1944 13.0833 88.1944 15.375C89.2361 17.6667 90.2569 19.9583 91.2569 22.25C92.2569 24.5 93.2569 26.6667 94.2569 28.75C95.2569 30.7917 96.3611 32.5625 97.5694 34.0625C97.7361 34.0625 97.8819 34 98.0069 33.875C98.1736 33.7083 98.3819 33.3125 98.6319 32.6875C98.8819 32.0208 99.2361 31.0208 99.6944 29.6875C100.153 28.3542 100.757 26.5 101.507 24.125C102.299 21.75 103.278 18.7708 104.444 15.1875C105.611 11.5625 107.028 7.16667 108.694 2C108.778 1.75 108.986 1.54167 109.319 1.375C109.653 1.16667 110.007 1.0625 110.382 1.0625C110.799 1.0625 111.174 1.20833 111.507 1.5C111.84 1.75 112.069 2.20833 112.194 2.875C112.611 6.70833 112.986 10.7708 113.319 15.0625C113.694 19.3125 114.09 23.6667 114.507 28.125C114.924 32.5833 115.403 37.1042 115.944 41.6875C116.486 46.2292 117.153 50.7083 117.944 55.125C117.861 55.7083 117.674 56.1042 117.382 56.3125C117.09 56.5625 116.736 56.6667 116.319 56.625C115.903 56.5833 115.444 56.4375 114.944 56.1875C114.486 55.9792 114.049 55.7083 113.632 55.375L109.569 9.125Z" fill="black"/>
<path d="M124.162 38.625C123.87 38.875 123.349 38.9792 122.599 38.9375C121.891 38.8542 121.224 38.6875 120.599 38.4375C120.016 38.1875 119.62 37.8542 119.412 37.4375C119.204 36.9792 119.454 36.4583 120.162 35.875C120.454 35.625 120.766 35.4583 121.099 35.375C121.474 35.25 121.829 35.1458 122.162 35.0625C122.537 34.9375 122.829 34.7708 123.037 34.5625C123.287 34.3542 123.433 34.0208 123.474 33.5625C123.516 31.6875 123.662 29.7708 123.912 27.8125C124.204 25.8542 124.724 24.1042 125.474 22.5625C126.224 21.0208 127.287 19.7917 128.662 18.875C130.079 17.9583 131.933 17.6042 134.224 17.8125C135.058 17.8125 135.995 18.0208 137.037 18.4375C138.079 18.8125 139.079 19.3333 140.037 20C140.995 20.625 141.829 21.3958 142.537 22.3125C143.245 23.1875 143.683 24.1458 143.849 25.1875C144.141 25.6042 143.974 26.125 143.349 26.75C142.724 27.375 141.849 28.0833 140.724 28.875C139.599 29.625 138.329 30.3958 136.912 31.1875C135.495 31.9792 134.12 32.7292 132.787 33.4375C131.495 34.1458 130.349 34.7708 129.349 35.3125C128.349 35.8542 127.704 36.2292 127.412 36.4375C127.662 38.0625 127.933 39.7708 128.224 41.5625C128.516 43.3542 128.933 45 129.474 46.5C130.016 48 130.683 49.25 131.474 50.25C132.308 51.2083 133.349 51.6875 134.599 51.6875C136.433 51.8125 137.995 51.5417 139.287 50.875C140.62 50.2083 141.724 49.3333 142.599 48.25C143.474 47.1667 144.162 45.9792 144.662 44.6875C145.204 43.3958 145.599 42.1667 145.849 41C146.141 39.8333 146.329 38.8542 146.412 38.0625C146.537 37.2292 146.641 36.7708 146.724 36.6875C147.183 36.4375 147.704 36.4375 148.287 36.6875C148.87 36.8958 149.204 37.5 149.287 38.5C149.329 40.125 148.974 41.9792 148.224 44.0625C147.474 46.1458 146.433 48.0625 145.099 49.8125C143.808 51.5625 142.245 52.9792 140.412 54.0625C138.62 55.1042 136.704 55.4583 134.662 55.125C132.537 55.0833 130.849 54.4792 129.599 53.3125C128.349 52.1042 127.349 50.6667 126.599 49C125.891 47.2917 125.37 45.5 125.037 43.625C124.704 41.75 124.412 40.0833 124.162 38.625ZM140.537 25.1875C139.204 23.3542 137.849 22.1875 136.474 21.6875C135.099 21.1875 133.683 21.0417 132.224 21.25C131.349 21.375 130.579 21.7917 129.912 22.5C129.245 23.1667 128.704 24.0417 128.287 25.125C127.87 26.1667 127.579 27.3542 127.412 28.6875C127.245 29.9792 127.224 31.3125 127.349 32.6875L140.537 25.1875Z" fill="black"/>
<path d="M170.879 43.3125C170.421 44.3542 169.734 45.5625 168.817 46.9375C167.9 48.3125 166.838 49.6042 165.629 50.8125C164.421 52.0208 163.088 53.0625 161.629 53.9375C160.213 54.7708 158.734 55.1875 157.192 55.1875C156.525 55.1875 155.984 55.1042 155.567 54.9375C155.192 54.7708 154.838 54.5417 154.504 54.25C154.213 53.9167 153.942 53.5208 153.692 53.0625C153.442 52.6042 153.129 52.0833 152.754 51.5C152.379 49.4167 152.171 47.1042 152.129 44.5625C152.129 42.0208 152.338 39.4583 152.754 36.875C153.213 34.2917 153.879 31.8333 154.754 29.5C155.671 27.125 156.838 25.1042 158.254 23.4375C159.713 21.7708 161.442 20.5833 163.442 19.875C165.484 19.125 167.838 19.0625 170.504 19.6875C170.754 17.0625 170.775 14.4375 170.567 11.8125C170.359 9.14583 170.192 6.375 170.067 3.5C170.067 3.08333 170.254 2.79167 170.629 2.625C171.004 2.41667 171.421 2.29167 171.879 2.25C172.379 2.16667 172.838 2.14583 173.254 2.1875C173.713 2.22917 174.004 2.3125 174.129 2.4375C174.088 6.1875 174.046 9.625 174.004 12.75C174.004 15.875 174.004 18.8333 174.004 21.625C174.004 24.375 174.004 27.0417 174.004 29.625C174.004 32.2083 174.004 34.8542 174.004 37.5625C174.046 40.2708 174.067 43.125 174.067 46.125C174.109 49.125 174.129 52.4167 174.129 56C174.338 56.6667 174.275 57.2292 173.942 57.6875C173.65 58.1458 173.275 58.4375 172.817 58.5625C172.359 58.6875 171.879 58.625 171.379 58.375C170.921 58.125 170.629 57.6458 170.504 56.9375L170.879 43.3125ZM167.879 23.125C166.296 22.875 164.796 23.3125 163.379 24.4375C162.004 25.5208 160.775 27.0208 159.692 28.9375C158.609 30.8125 157.713 32.9375 157.004 35.3125C156.296 37.6458 155.838 39.9167 155.629 42.125C155.463 44.2917 155.567 46.25 155.942 48C156.317 49.75 157.046 50.9583 158.129 51.625C159.171 51.625 160.192 51.2708 161.192 50.5625C162.192 49.8125 163.129 48.875 164.004 47.75C164.921 46.625 165.754 45.375 166.504 44C167.296 42.5833 167.984 41.2083 168.567 39.875C169.15 38.5417 169.588 37.3333 169.879 36.25C170.213 35.125 170.379 34.2708 170.379 33.6875C170.379 33.2292 170.379 32.4167 170.379 31.25C170.379 30.0833 170.296 28.8958 170.129 27.6875C170.004 26.4792 169.754 25.4167 169.379 24.5C169.046 23.5833 168.546 23.125 167.879 23.125Z" fill="black"/>
<path d="M179.409 16.9375C179.659 16.8125 179.951 16.7083 180.284 16.625C180.618 16.5417 180.93 16.5 181.222 16.5C181.555 16.5 181.868 16.5625 182.159 16.6875C182.451 16.8125 182.68 17.0417 182.847 17.375C182.847 20.0833 182.868 23.0208 182.909 26.1875C182.993 29.3125 183.076 32.5 183.159 35.75C183.284 38.9583 183.389 42.125 183.472 45.25C183.555 48.375 183.639 51.2708 183.722 53.9375C183.764 54.5625 183.597 55.0417 183.222 55.375C182.847 55.7083 182.43 55.875 181.972 55.875C181.555 55.875 181.159 55.7083 180.784 55.375C180.409 55.0833 180.222 54.6042 180.222 53.9375L179.409 16.9375ZM178.659 4.1875C178.659 3.64583 178.847 3.29167 179.222 3.125C179.597 2.91667 180.014 2.8125 180.472 2.8125C181.389 2.8125 181.951 3.125 182.159 3.75C182.409 4.33333 182.534 5.02083 182.534 5.8125C182.284 6.3125 181.951 6.66667 181.534 6.875C181.118 7.08333 180.68 7.125 180.222 7C179.805 6.875 179.43 6.58333 179.097 6.125C178.805 5.66667 178.659 5.02083 178.659 4.1875Z" fill="black"/>
<path d="M209.377 54.6875C208.794 53.8125 208.419 52.6667 208.252 51.25C208.127 49.8333 208.044 48.3542 208.002 46.8125C208.002 45.2292 208.002 43.6875 208.002 42.1875C208.044 40.6458 207.939 39.3333 207.689 38.25C205.731 42.5417 203.877 45.8958 202.127 48.3125C200.419 50.6875 198.835 52.3958 197.377 53.4375C195.96 54.4375 194.669 54.8958 193.502 54.8125C192.335 54.6875 191.335 54.2708 190.502 53.5625C189.71 52.8125 189.085 51.9167 188.627 50.875C188.169 49.7917 187.919 48.7708 187.877 47.8125C187.585 46.2292 187.564 44.3333 187.814 42.125C188.106 39.875 188.585 37.5625 189.252 35.1875C189.96 32.8125 190.835 30.5 191.877 28.25C192.96 25.9583 194.169 23.9792 195.502 22.3125C196.877 20.6458 198.335 19.4167 199.877 18.625C201.419 17.7917 203.023 17.6458 204.689 18.1875C205.523 18.1042 206.21 18.1458 206.752 18.3125C207.335 18.4375 207.814 18.7292 208.189 19.1875C208.564 19.6458 208.835 20.2917 209.002 21.125C209.169 21.9167 209.294 22.9375 209.377 24.1875C209.294 28.2292 209.398 31.6667 209.689 34.5C210.023 37.3333 210.398 39.8333 210.814 42C211.231 44.1667 211.627 46.125 212.002 47.875C212.419 49.625 212.669 51.4375 212.752 53.3125C212.752 53.9792 212.585 54.5 212.252 54.875C211.919 55.2083 211.544 55.4167 211.127 55.5C210.71 55.625 210.314 55.6042 209.939 55.4375C209.606 55.2708 209.419 55.0208 209.377 54.6875ZM205.752 23.125C204.752 21.7917 203.669 21.2292 202.502 21.4375C201.335 21.6458 200.169 22.375 199.002 23.625C197.877 24.8333 196.794 26.4375 195.752 28.4375C194.71 30.3958 193.814 32.5 193.064 34.75C192.314 37 191.752 39.25 191.377 41.5C191.044 43.7083 190.981 45.6667 191.189 47.375C191.773 49.25 192.481 50.375 193.314 50.75C194.148 51.125 195.044 51 196.002 50.375C196.96 49.7083 197.939 48.6667 198.939 47.25C199.939 45.8333 200.898 44.3125 201.814 42.6875C202.731 41.0208 203.544 39.375 204.252 37.75C205.002 36.0833 205.606 34.6875 206.064 33.5625L205.752 23.125Z" fill="black"/>
<path d="M185 6C185 8.20914 183.209 10 181 10C178.791 10 177 8.20914 177 6C177 3.79086 178.791 2 181 2C183.209 2 185 3.79086 185 6Z" fill="#00778D"/>
</svg>
