<svg width="120" height="120" viewBox="0 0 120 120" fill="none" xmlns="http://www.w3.org/2000/svg">
<circle cx="60" cy="60" r="60" fill="#00778D"/>
<path d="M53.9277 39.3438C53.6022 38.237 53.3418 37.2604 53.1465 36.4141C53.0163 35.5026 53.0163 34.526 53.1465 33.4844C53.2116 33.1589 53.2767 32.8008 53.3418 32.4102C53.472 32.0195 53.6348 31.7266 53.8301 31.5312C54.0905 31.2708 54.416 31.1081 54.8066 31.043C55.1973 30.9128 55.7181 30.9779 56.3691 31.2383C56.7598 31.4336 57.1504 31.7917 57.541 32.3125C57.9316 32.7682 58.2572 33.3216 58.5176 33.9727C58.8431 34.6237 59.1035 35.2422 59.2988 35.8281C59.4941 36.4141 59.6243 36.9023 59.6895 37.293C61.4473 36.2513 63.4004 35.2096 65.5488 34.168C67.6973 33.0612 69.9108 32.1497 72.1895 31.4336C74.5332 30.6523 76.877 30.099 79.2207 29.7734C81.5645 29.3828 83.8105 29.3177 85.959 29.5781C86.6751 29.6432 87.4889 29.8385 88.4004 30.1641C89.377 30.4245 90.2559 30.8151 91.0371 31.3359C91.8835 31.7917 92.5671 32.3776 93.0879 33.0938C93.6738 33.7448 93.9017 34.526 93.7715 35.4375C93.7715 37.1953 93.3809 39.0182 92.5996 40.9062C91.8835 42.7943 90.9395 44.6823 89.7676 46.5703C88.5957 48.4583 87.2611 50.3138 85.7637 52.1367C84.3314 53.9596 82.8991 55.6849 81.4668 57.3125C80.0996 58.875 78.7975 60.3073 77.5605 61.6094C76.3236 62.9115 75.3796 63.9857 74.7285 64.832C76.9421 63.9857 79.5462 63.2695 82.541 62.6836C85.5358 62.0326 88.4655 61.8047 91.3301 62C94.2598 62.1953 96.8639 62.9115 99.1426 64.1484C101.486 65.3854 103.049 67.4036 103.83 70.2031C104.025 71.8958 103.7 73.8164 102.854 75.9648C102.007 78.0482 100.803 80.2292 99.2402 82.5078C97.6777 84.7865 95.8223 87.0977 93.6738 89.4414C91.5905 91.7201 89.377 93.9336 87.0332 96.082C84.7546 98.2305 82.4434 100.216 80.0996 102.039C77.7559 103.862 75.5749 105.457 73.5566 106.824C71.6035 108.126 69.8783 109.135 68.3809 109.852C66.8835 110.503 65.8092 110.763 65.1582 110.633L62.8145 106.727C63.14 106.792 64.1816 106.271 65.9395 105.164C67.6973 103.992 69.7806 102.495 72.1895 100.672C74.6634 98.7839 77.3001 96.668 80.0996 94.3242C82.8991 91.9154 85.5033 89.5065 87.9121 87.0977C90.3861 84.6888 92.4694 82.3776 94.1621 80.1641C95.8548 77.8854 96.8314 75.8997 97.0918 74.207C97.4173 71.9284 96.7988 70.3008 95.2363 69.3242C93.7389 68.2826 91.6882 67.7617 89.084 67.7617C86.4798 67.7617 83.5827 68.2174 80.3926 69.1289C77.2025 69.9753 74.1751 71.1146 71.3105 72.5469C68.446 73.9141 65.9395 75.5091 63.791 77.332C61.6426 79.1549 60.3079 81.043 59.7871 82.9961C59.5267 85.0143 59.3639 87.0977 59.2988 89.2461C59.2337 91.3945 59.1686 93.5755 59.1035 95.7891C59.1035 97.9375 59.071 100.086 59.0059 102.234C59.0059 104.383 58.8757 106.434 58.6152 108.387C58.4199 109.819 58.127 110.991 57.7363 111.902C57.4108 112.814 56.4668 113.139 54.9043 112.879C54.7741 112.879 54.5462 112.846 54.2207 112.781C53.8952 112.716 53.7324 112.651 53.7324 112.586L53.9277 39.3438ZM59.8848 46.9609C59.6895 48.263 59.5267 49.9232 59.3965 51.9414C59.3314 53.9596 59.2988 56.043 59.2988 58.1914C59.2988 60.3398 59.3639 62.4232 59.4941 64.4414C59.6895 66.4596 59.9499 68.1523 60.2754 69.5195C61.4473 68.543 63.0423 67.1758 65.0605 65.418C67.1439 63.6602 69.3249 61.707 71.6035 59.5586C73.9473 57.3451 76.2259 55.0339 78.4395 52.625C80.653 50.2161 82.4759 47.9049 83.9082 45.6914C85.4056 43.4128 86.3496 41.362 86.7402 39.5391C87.1309 37.651 86.6751 36.1536 85.373 35.0469C84.2012 34.9167 82.7689 34.9167 81.0762 35.0469C79.4486 35.112 77.7233 35.3398 75.9004 35.7305C74.0775 36.056 72.2546 36.5443 70.4316 37.1953C68.6087 37.8464 66.9486 38.6602 65.4512 39.6367C63.9538 40.5482 62.6842 41.6224 61.6426 42.8594C60.666 44.0964 60.0801 45.4635 59.8848 46.9609Z" fill="black"/>
<path d="M29.9395 94.8008C29.7441 80.8685 29.5163 69.2799 29.2559 60.0352C28.9954 50.7253 28.7676 43.2057 28.5723 37.4766C28.377 31.6823 28.2142 27.418 28.084 24.6836C27.9538 21.8841 27.8887 20.0612 27.8887 19.2148C27.8887 18.2383 28.1491 17.457 28.6699 16.8711C29.2559 16.2852 29.8743 16.0247 30.5254 16.0898C31.1764 16.0898 31.7949 16.4479 32.3809 17.1641C32.9668 17.8151 33.2923 18.8893 33.3574 20.3867L36.4824 91.9688L78.8652 82.9844C83.2272 82.9844 84.1712 84.8398 81.6973 88.5508L32.6738 99C30.8509 99 29.9395 97.6003 29.9395 94.8008Z" fill="white"/>
</svg>
