<svg width="200" height="200" viewBox="0 0 200 200" fill="none" xmlns="http://www.w3.org/2000/svg">
<rect width="200" height="200" fill="#102A3E"/>
<path d="M130.15 46.55C132.45 46.55 136 46.35 140.8 45.95C146.6 45.55 151.2 45.35 154.6 45.35C177.3 45.35 188.65 53.8 188.65 70.7C188.65 85.3 180 94.75 162.7 99.05C167.7 99.15 172.1 100.25 175.9 102.35C179.8 104.35 182.8 107.05 184.9 110.45C187 113.85 188.05 117.6 188.05 121.7C188.15 134.8 183.7 144.35 174.7 150.35C165.7 156.35 152.8 159.35 136 159.35C132.8 159.35 128.95 159.1 124.45 158.6C119.45 158.2 115.95 158 113.95 158H94L94.6 151.1L105.1 149L117.25 55.7L106.9 53.9L107.65 46.55H130.15ZM132.25 95.75C133.95 95.85 135.4 95.9 136.6 95.9C137.9 95.8 139 95.75 139.9 95.75H143.95C151.15 95.75 157.1 93.8 161.8 89.9C166.5 85.9 168.85 79.9 168.85 71.9C168.85 59.9 162.5 53.9 149.8 53.9C144.5 53.9 140.45 54.2 137.65 54.8L132.25 95.75ZM125.2 149.15C126.9 149.65 129.15 150.05 131.95 150.35C134.85 150.65 137.2 150.8 139 150.8C147.7 150.8 154.4 148.75 159.1 144.65C163.8 140.45 166.15 133.95 166.15 125.15C166.15 118.25 164.35 113.15 160.75 109.85C157.25 106.55 151.6 104.9 143.8 104.9C138.5 104.9 134.25 105 131.05 105.2L125.2 149.15Z" fill="#1E7DBF"/>
<path d="M69.2 46L68.45 53.35L55.25 55.15L43.1 148.75L73.85 147.55L87.2 117.1L98.3 118.6L90.8 157.45H11L11.75 150.55L22.1 148.45L34.25 55.15L23.75 53.35L24.65 46H69.2Z" fill="#FFD400"/>
</svg>
